<svg width="23" height="20" viewBox="0 0 23 20" fill="none" xmlns="http://www.w3.org/2000/svg">
<path d="M9.24938 18.4615C9.24938 18.7658 9.15896 19.0633 8.98958 19.3163C8.82019 19.5693 8.57943 19.7664 8.29774 19.8829C8.01606 19.9993 7.7061 20.0298 7.40707 19.9704C7.10804 19.9111 6.83335 19.7646 6.61776 19.5494C6.40217 19.3342 6.25535 19.0601 6.19587 18.7617C6.13639 18.4632 6.16692 18.1539 6.28359 17.8728C6.40027 17.5917 6.59786 17.3514 6.85137 17.1824C7.10488 17.0133 7.40292 16.9231 7.70781 16.9231C8.11666 16.9231 8.50876 17.0852 8.79786 17.3737C9.08696 17.6622 9.24938 18.0535 9.24938 18.4615ZM17.728 16.9231C17.4231 16.9231 17.125 17.0133 16.8715 17.1824C16.618 17.3514 16.4204 17.5917 16.3038 17.8728C16.1871 18.1539 16.1565 18.4632 16.216 18.7617C16.2755 19.0601 16.4223 19.3342 16.6379 19.5494C16.8535 19.7646 17.1282 19.9111 17.4272 19.9704C17.7263 20.0298 18.0362 19.9993 18.3179 19.8829C18.5996 19.7664 18.8403 19.5693 19.0097 19.3163C19.1791 19.0633 19.2695 18.7658 19.2695 18.4615C19.2695 18.0535 19.1071 17.6622 18.818 17.3737C18.5289 17.0852 18.1368 16.9231 17.728 16.9231ZM22.3189 4.84135L19.5701 13.7558C19.4262 14.2283 19.1334 14.642 18.7353 14.9354C18.3371 15.2288 17.8548 15.3863 17.3599 15.3846H8.09995C7.59795 15.3827 7.11007 15.2186 6.70937 14.9168C6.30867 14.615 6.01671 14.1918 5.87721 13.7106L2.39135 1.53846H0.770781C0.566357 1.53846 0.370306 1.45742 0.225757 1.31316C0.0812071 1.1689 0 0.973243 0 0.769231C0 0.565218 0.0812071 0.369561 0.225757 0.225302C0.370306 0.0810437 0.566357 0 0.770781 0H2.39135C2.72607 0.00110813 3.05143 0.110373 3.31873 0.31144C3.58603 0.512507 3.78088 0.794561 3.87414 1.11538L4.65552 3.84615H21.5819C21.7025 3.84611 21.8214 3.87432 21.9291 3.92851C22.0368 3.9827 22.1303 4.06136 22.202 4.15816C22.2737 4.25496 22.3216 4.36721 22.3419 4.48587C22.3622 4.60452 22.3544 4.72628 22.3189 4.84135ZM20.5384 5.38461H5.09583L7.35903 13.2885C7.40508 13.4491 7.50229 13.5904 7.63597 13.6911C7.76964 13.7917 7.93251 13.8461 8.09995 13.8462H17.3599C17.5249 13.8462 17.6855 13.7935 17.8181 13.6957C17.9508 13.5979 18.0485 13.4602 18.097 13.3029L20.5384 5.38461Z" fill="white"/>
</svg>
