<svg width="21" height="20" viewBox="0 0 21 20" fill="none" xmlns="http://www.w3.org/2000/svg">
<path d="M20.0872 18.3139L16.3766 14.6333C17.8169 12.8374 18.5144 10.5579 18.3257 8.26356C18.137 5.96919 17.0764 3.83432 15.3619 2.29792C13.6475 0.761532 11.4096 -0.0595993 9.10829 0.00337152C6.80703 0.0663423 4.61735 1.00863 2.9895 2.63648C1.36166 4.26433 0.41937 6.454 0.356399 8.75527C0.293428 11.0565 1.11456 13.2945 2.65095 15.0089C4.18734 16.7233 6.32221 17.784 8.61659 17.9727C10.911 18.1614 13.1905 17.4639 14.9863 16.0235L18.667 19.7042C18.7599 19.7979 18.8705 19.8723 18.9924 19.9231C19.1143 19.9739 19.245 20 19.3771 20C19.5091 20 19.6398 19.9739 19.7617 19.9231C19.8836 19.8723 19.9942 19.7979 20.0872 19.7042C20.2675 19.5177 20.3682 19.2684 20.3682 19.009C20.3682 18.7497 20.2675 18.5004 20.0872 18.3139ZM9.37542 16.0235C7.99072 16.0235 6.63712 15.6129 5.48578 14.8436C4.33445 14.0743 3.43709 12.9809 2.90719 11.7016C2.37729 10.4223 2.23865 9.01462 2.50879 7.65653C2.77893 6.29844 3.44572 5.05095 4.42485 4.07183C5.40398 3.0927 6.65147 2.4259 8.00956 2.15576C9.36765 1.88562 10.7753 2.02426 12.0546 2.55417C13.3339 3.08407 14.4274 3.98142 15.1967 5.13276C15.966 6.28409 16.3766 7.63769 16.3766 9.02239C16.3766 10.8792 15.639 12.66 14.326 13.973C13.013 15.2859 11.2322 16.0235 9.37542 16.0235Z" fill="white"/>
</svg>
